<?xml version="1.0" encoding="utf-8"?>
<!-- Generator: Adobe Illustrator 16.0.4, SVG Export Plug-In . SVG Version: 6.00 Build 0)  -->
<!DOCTYPE svg PUBLIC "-//W3C//DTD SVG 1.1//EN" "http://www.w3.org/Graphics/SVG/1.1/DTD/svg11.dtd">
<svg version="1.1" xmlns="http://www.w3.org/2000/svg" xmlns:xlink="http://www.w3.org/1999/xlink" x="0px" y="0px" width="225px"
     height="140px" viewBox="0 0 225 140" enable-background="new 0 0 225 140" xml:space="preserve">
<g id="Stitek__x2B__MU">
    <g>
        <rect fill="#F2D45C" width="54" height="134"/>
    </g>
    <path fill="#FFFFFF" d="M22.172,113.879V97.833c0.013,0.071,0.229,1.023,3.293,12.815c0.148,0.561,0.617,1.175,1.544,1.175
        c0.958,0,1.378-0.54,1.548-1.175c0.939-3.641,3.268-12.769,3.268-12.769v16c-1.484,0.496-3.106,0.769-4.824,0.769
        C25.285,114.648,23.654,114.375,22.172,113.879z M42.277,76.192c-1.571,0-2.846,1.255-2.846,2.806v25.393
        c0,2.304-0.854,4.378-2.314,6.056V78.951c0-1.358-1.01-2.508-2.375-2.697c-1.354-0.198-2.713,0.592-3.041,1.932
        C27.047,97.051,27.003,97.2,27.003,97.2s-0.03-0.148-4.707-19.018c-0.335-1.336-1.681-2.126-3.038-1.928
        c-1.365,0.189-2.369,1.339-2.369,2.697v31.495c-1.465-1.678-2.326-3.752-2.326-6.056V78.998c0-1.551-1.271-2.806-2.84-2.806
        C10.15,76.192,9,77.447,9,78.998v25.393c0,8.934,7.943,15.179,18,15.179c10.056,0,18-6.245,18-15.179V78.998
        C45,77.447,43.846,76.192,42.277,76.192z"/>
</g>
<g id="Text_CZ">
    <g>
        <g>
            <g>
                <path fill="#002776" d="M71.919,76.731h7.276l-0.02,2.09h-4.825l-0.019,3.381h4.787l-0.02,2.09h-4.806l-0.019,5.585h-2.489
                    L71.919,76.731z"/>
                <path fill="#002776" d="M81.717,90.143l-2.26-0.684l5.053-12.728h2.242l4.691,12.728l-2.374,0.684l-1.292-3.762h-4.578
                    L81.717,90.143z M85.593,79.276h-0.038l-1.652,5.129h3.211L85.593,79.276z"/>
                <path fill="#002776" d="M93.232,76.731h2.432l-0.037,6.136h0.095l5.376-6.402l1.805,1.444l-4.691,5.186l4.635,5.643
                    l-1.976,1.406l-5.206-6.611h-0.037l-0.057,6.345h-2.432L93.232,76.731z"/>
                <path fill="#002776" d="M109.954,88.053c1.919,0,2.926-1.254,2.944-3.059l0.076-8.264h2.432l-0.076,8.396
                    c-0.057,3.23-2.279,5.016-5.414,5.016c-3.115,0-5.3-1.729-5.3-5.148c0-2.754,0.057-5.509,0.075-8.264h2.432
                    c-0.019,2.812-0.075,5.585-0.075,8.396C107.048,86.97,108.34,88.053,109.954,88.053z"/>
                <path fill="#002776" d="M125.963,89.877h-7.58l0.114-13.146h2.432l-0.114,11.056h5.148V89.877z"/>
                <path fill="#002776" d="M128.99,78.821h-3.686l0.02-2.09h9.746l-0.02,2.09h-3.629l-0.095,11.056h-2.432L128.99,78.821z"/>
                <path fill="#002776" d="M136.607,90.143l-2.261-0.684l5.054-12.728h2.241l4.692,12.728l-2.375,0.684l-1.291-3.762h-4.578
                    L136.607,90.143z M140.482,79.276h-0.037l-1.653,5.129h3.211L140.482,79.276z"/>
                <path fill="#002776" d="M71.883,98.731h2.432l-0.113,13.146H71.77L71.883,98.731z"/>
                <path fill="#002776" d="M77.348,99.149l2.26-0.684l6.137,10.068h0.038l-0.152-9.802h2.432l-0.114,12.728l-2.45,0.684
                    l-5.983-10.012l-0.039,0.038l0.19,9.708h-2.432L77.348,99.149z"/>
                <path fill="#002776" d="M91.181,98.731h7.276l-0.02,2.09h-4.825l-0.019,3.381h4.787l-0.02,2.09h-4.806l-0.019,5.585h-2.489
                    L91.181,98.731z"/>
                <path fill="#002776" d="M99.959,105.304c0-3.837,3.135-6.839,7.048-6.839c4.255,0,7.048,3.001,7.048,6.839
                    c0,3.838-3.059,6.839-7.048,6.839S99.959,109.312,99.959,105.304z M102.504,105.304c0,2.869,1.786,4.863,4.503,4.863
                    s4.503-2.26,4.503-4.863c0-2.792-1.786-4.863-4.503-4.863C104.803,100.44,102.504,102.264,102.504,105.304z"/>
                <path fill="#002776" d="M119.623,106.615h-0.76l-0.02,5.262h-2.488l0.133-13.146h4.16c3.191,0,4.465,1.729,4.465,3.799
                    c0,1.672-1.007,2.869-2.546,3.419l3.743,4.901l-2.166,1.292l-3.648-5.072C120.287,106.767,119.984,106.615,119.623,106.615z
                     M120.402,104.639c0.702,0,2.165-0.304,2.165-2.033c0-1.273-0.987-1.9-2.223-1.9h-1.405l-0.039,3.933H120.402z"/>
                <path fill="#002776" d="M129.927,98.731h2.489l3.191,10.505h0.037l3.648-10.505h2.488l1.938,13.146l-2.47,0.266l-0.987-10.373
                    h-0.039l-3.343,10.106h-2.508l-3.021-10.106h-0.038l-1.368,10.373l-2.336-0.266L129.927,98.731z"/>
                <path fill="#002776" d="M147.412,112.143l-2.261-0.684l5.054-12.728h2.241l4.692,12.728l-2.375,0.684l-1.291-3.762h-4.578
                    L147.412,112.143z M151.287,101.276h-0.037l-1.653,5.129h3.211L151.287,101.276z"/>
                <path fill="#002776" d="M160.213,100.821h-3.686l0.019-2.09h9.745l-0.019,2.09h-3.628l-0.096,11.056h-2.432L160.213,100.821z"/>
                <path fill="#002776" d="M168.033,98.731h2.432l-0.114,13.146h-2.432L168.033,98.731z"/>
                <path fill="#002776" d="M173.493,98.731h2.432l-0.038,6.136h0.096l5.376-6.402l1.805,1.444l-4.692,5.186l4.635,5.643
                    l-1.975,1.406l-5.206-6.611h-0.038l-0.057,6.345h-2.432L173.493,98.731z"/>
                <path fill="#002776" d="M188.578,106.425l-4.35-6.706l2.223-1.254l3.438,5.623l3.571-5.623l2.146,1.235l-4.483,6.649
                    l-0.075,5.528h-2.547L188.578,106.425z"/>
                <path fill="#002776" d="M73.131,123.498h1.336l3.135,8.759l3.375-8.759h1.395l1.649,10.379l-1.26,0.21l-1.319-8.879H81.41
                    l-3.225,8.669h-1.229l-3.015-8.669h-0.03l-1.425,8.879l-1.245-0.21L73.131,123.498z"/>
                <path fill="#002776" d="M91.198,133.187c0.255,0,0.435-0.12,0.63-0.255l0.33,0.615c-0.42,0.345-0.87,0.54-1.395,0.54
                    c-0.676,0-1.051-0.6-1.11-1.245c-0.585,0.705-1.29,1.245-2.25,1.245c-1.319,0-2.159-0.9-2.159-2.16
                    c0-2.13,2.729-2.595,4.364-2.67c0.015-0.315,0.03-0.63,0.03-0.945c0-0.645-0.346-1.125-1.141-1.125
                    c-0.584,0-1.095,0.195-2.16,1.035l-0.494-0.78c1.484-0.96,1.994-1.245,3.06-1.245c1.26,0,1.875,0.735,1.875,1.89
                    c0,1.425-0.12,2.715-0.12,4.035C90.658,132.662,90.733,133.187,91.198,133.187z M87.778,133.187c0.735,0,1.306-0.51,1.771-1.095
                    l0.06-2.115c-2.085,0.285-3.165,0.66-3.165,1.935C86.443,132.752,86.938,133.187,87.778,133.187z"/>
                <path fill="#002776" d="M95.323,134.087c-0.886,0-1.665-0.3-2.34-0.735l0.51-0.795c0.42,0.285,1.005,0.63,1.649,0.63
                    c0.66,0,1.455-0.36,1.455-1.2c0-1.86-3.465-1.05-3.465-3.555c0-1.41,1.155-2.235,2.521-2.235c0.84,0,1.62,0.255,2.175,0.63
                    l-0.555,0.765c-0.436-0.24-0.9-0.495-1.426-0.495c-0.885,0-1.515,0.345-1.515,1.245c0,1.605,3.465,0.945,3.465,3.48
                    C97.798,133.262,96.553,134.087,95.323,134.087z"/>
                <path fill="#002776" d="M104.893,133.187c0.256,0,0.436-0.12,0.631-0.255l0.33,0.615c-0.42,0.345-0.871,0.54-1.396,0.54
                    c-0.675,0-1.05-0.6-1.11-1.245c-0.584,0.705-1.289,1.245-2.25,1.245c-1.319,0-2.159-0.9-2.159-2.16
                    c0-2.13,2.729-2.595,4.364-2.67c0.016-0.315,0.03-0.63,0.03-0.945c0-0.645-0.345-1.125-1.14-1.125
                    c-0.585,0-1.096,0.195-2.16,1.035l-0.495-0.78c1.485-0.96,1.995-1.245,3.06-1.245c1.261,0,1.875,0.735,1.875,1.89
                    c0,1.425-0.119,2.715-0.119,4.035C104.354,132.662,104.428,133.187,104.893,133.187z M101.473,133.187
                    c0.735,0,1.306-0.51,1.771-1.095l0.06-2.115c-2.084,0.285-3.164,0.66-3.164,1.935
                    C100.139,132.752,100.633,133.187,101.473,133.187z"/>
                <path fill="#002776" d="M110.193,127.367c-0.494,0-1.289,0.405-1.935,1.605l-0.06,4.905h-1.2l0.06-7.47h1.23l-0.016,1.455
                    l0.03,0.03c0.24-0.66,1.005-1.695,2.069-1.695c0.24,0,0.451,0.03,0.646,0.105l-0.36,1.14
                    C110.539,127.397,110.359,127.367,110.193,127.367z"/>
                <path fill="#002776" d="M111.83,136.517c1.155,0,1.5-0.27,1.815-0.975l0.81-1.785l-2.774-7.2l1.29-0.36l2.07,6.075h0.029
                    l2.266-6.075l1.185,0.36l-3.33,8.25c-0.84,2.055-1.274,2.61-2.88,2.61h-0.48V136.517z"/>
                <path fill="#002776" d="M119.891,122.627h1.186l-0.061,7.38l3.84-3.975l0.795,0.78l-3.149,3.03l3.24,3.6l-0.945,0.765
                    l-3.78-4.17l-0.045,3.84h-1.17L119.891,122.627z"/>
                <path fill="#002776" d="M126.331,130.142c0-1.935,1.274-3.945,3.645-3.945c2.19,0,3.495,1.485,3.495,3.945
                    c0,1.935-1.29,3.945-3.645,3.945C127.621,134.087,126.331,132.617,126.331,130.142z M127.621,130.142
                    c0,2.07,1.005,3.045,2.22,3.045c1.125,0,2.34-0.975,2.34-3.045s-1.005-3.045-2.22-3.045
                    C128.836,127.097,127.621,128.072,127.621,130.142z"/>
                <path fill="#002776" d="M140.999,126.557l-3.015,7.32h-1.17l-2.745-7.35l1.245-0.33l2.115,6.24h0.029l2.34-6.24L140.999,126.557
                    z"/>
                <path fill="#002776" d="M147.553,133.187c0.254,0,0.435-0.12,0.629-0.255l0.33,0.615c-0.42,0.345-0.869,0.54-1.395,0.54
                    c-0.675,0-1.05-0.6-1.109-1.245c-0.586,0.705-1.291,1.245-2.25,1.245c-1.32,0-2.16-0.9-2.16-2.16c0-2.13,2.73-2.595,4.365-2.67
                    c0.015-0.315,0.029-0.63,0.029-0.945c0-0.645-0.345-1.125-1.14-1.125c-0.585,0-1.095,0.195-2.16,1.035l-0.495-0.78
                    c1.485-0.96,1.995-1.245,3.061-1.245c1.26,0,1.875,0.735,1.875,1.89c0,1.425-0.121,2.715-0.121,4.035
                    C147.012,132.662,147.088,133.187,147.553,133.187z M144.133,133.187c0.734,0,1.305-0.51,1.77-1.095l0.061-2.115
                    c-2.086,0.285-3.166,0.66-3.166,1.935C142.797,132.752,143.293,133.187,144.133,133.187z"/>
                <path fill="#002776" d="M153.822,131.822c0-0.585,0.016-1.125,0.016-1.71l0.029-3.705h1.2l-0.03,3.36
                    c0,0.66-0.015,1.32-0.015,2.055c0,0.825,0.524,1.185,1.364,1.185c0.781,0,1.471-0.435,2.235-1.38l0.06-5.22h1.201l-0.061,7.47
                    h-1.2l0.045-1.2h-0.03c-0.645,0.9-1.635,1.41-2.534,1.41C154.377,134.087,153.822,133.202,153.822,131.822z"/>
                <path fill="#002776" d="M165.463,127.277c-0.779,0-1.469,0.435-2.234,1.38l-0.061,5.22h-1.199l0.06-7.47h1.2l-0.045,1.2h0.029
                    c0.646-0.9,1.636-1.41,2.535-1.41c1.725,0,2.28,0.885,2.28,2.265c0,0.585-0.015,1.125-0.015,1.709l-0.03,3.705h-1.2l0.03-3.36
                    c0-0.66,0.015-1.32,0.015-2.055C166.828,127.637,166.303,127.277,165.463,127.277z"/>
                <path fill="#002776" d="M170.053,123.498h1.289v1.35h-1.289V123.498z M170.112,126.407h1.2l-0.061,7.47h-1.199L170.112,126.407z
                    "/>
                <path fill="#002776" d="M179.479,126.557l-3.016,7.32h-1.17l-2.744-7.35l1.244-0.33l2.115,6.24h0.029l2.34-6.24L179.479,126.557
                    z"/>
                <path fill="#002776" d="M181.29,129.977v0.255c0,1.56,0.585,2.955,2.114,2.955c0.855,0,1.485-0.495,2.131-1.08l0.584,0.645
                    c-0.765,0.765-1.725,1.335-2.85,1.335c-2.084,0-3.27-1.485-3.27-3.945c0-2.04,1.425-3.945,3.42-3.945
                    c2.01,0,2.88,1.53,2.88,3.54v0.24H181.29z M185.1,129.167c0-1.065-0.449-2.07-1.665-2.07c-1.14,0-1.829,1.05-2.04,2.07H185.1z"
                    />
                <path fill="#002776" d="M191.102,127.367c-0.496,0-1.291,0.405-1.936,1.605l-0.061,4.905h-1.199l0.06-7.47h1.229l-0.014,1.455
                    l0.029,0.03c0.24-0.66,1.005-1.695,2.07-1.695c0.24,0,0.449,0.03,0.645,0.105l-0.359,1.14
                    C191.445,127.397,191.266,127.367,191.102,127.367z"/>
                <path fill="#002776" d="M198.099,133.877h-5.415l-0.255-0.63l4.2-5.76h-3.84v-1.08h5.295l0.254,0.54l-4.244,5.94h4.005V133.877z
                    "/>
                <path fill="#002776" d="M199.582,123.498h1.29v1.35h-1.29V123.498z M199.643,126.407h1.199l-0.061,7.47h-1.199L199.643,126.407z
                    "/>
                <path fill="#002776" d="M202.1,126.407h1.291l0.029-2.76h1.2l-0.03,2.76h2.04v0.9h-2.056l-0.029,3.06
                    c-0.016,0.42-0.016,0.78-0.016,1.065v0.705c0,0.615,0.166,0.96,0.69,0.96c0.405,0,0.915-0.255,1.2-0.435l0.39,0.78
                    c-0.495,0.345-1.215,0.645-1.874,0.645c-1.156,0-1.605-0.705-1.605-1.905v-0.87c0-0.33,0-0.75,0.015-1.275l0.03-2.73H202.1
                    V126.407z"/>
                <path fill="#002776" d="M213.462,133.187c0.255,0,0.435-0.12,0.63-0.255l0.33,0.615c-0.42,0.345-0.87,0.54-1.395,0.54
                    c-0.676,0-1.051-0.6-1.11-1.245c-0.585,0.705-1.29,1.245-2.25,1.245c-1.319,0-2.159-0.9-2.159-2.16
                    c0-2.13,2.729-2.595,4.364-2.67c0.015-0.315,0.03-0.63,0.03-0.945c0-0.645-0.346-1.125-1.141-1.125
                    c-0.584,0-1.095,0.195-2.16,1.035l-0.494-0.78c1.484-0.96,1.994-1.245,3.06-1.245c1.26,0,1.875,0.735,1.875,1.89
                    c0,1.425-0.12,2.715-0.12,4.035C212.922,132.662,212.997,133.187,213.462,133.187z M210.042,133.187
                    c0.735,0,1.306-0.51,1.771-1.095l0.06-2.115c-2.085,0.285-3.165,0.66-3.165,1.935
                    C208.707,132.752,209.202,133.187,210.042,133.187z"/>
            </g>
        </g>
    </g>
</g>
</svg>
